<svg width="130" height="130" viewBox="0 0 130 130" fill="none" xmlns="http://www.w3.org/2000/svg">
<path fill-rule="evenodd" clip-rule="evenodd" d="M125.916 5.84595C116.985 66.9712 62.1399 96.6616 4.88395 103.412C3.90076 103.53 3.19385 104.423 3.31166 105.406C3.42946 106.389 4.32198 107.096 5.30517 106.978C64.165 100.042 120.288 69.2003 129.468 6.36241C129.613 5.38376 128.933 4.47307 127.95 4.32808C126.971 4.1831 126.061 4.86276 125.916 5.84595Z" fill="white"/>
<path fill-rule="evenodd" clip-rule="evenodd" d="M6.17014 105.07C8.71646 103.207 11.9379 100.906 12.2958 100.634C21.9963 93.2668 30.034 84.7897 37.1111 74.8446C37.6865 74.0381 37.4961 72.9144 36.6897 72.339C35.8832 71.7636 34.7596 71.954 34.1842 72.7605C27.3246 82.4066 19.5316 90.63 10.1211 97.7751C9.57288 98.1919 2.32799 103.362 0.941561 104.517C0.370678 104.988 0.1941 105.432 0.162384 105.541C-0.0279098 106.112 0.0853252 106.56 0.239373 106.887C0.416075 107.253 0.855449 107.788 1.70724 108.06C2.59981 108.341 4.5844 108.468 5.08279 108.54C12.5994 109.655 21.0857 110.244 28.8107 112.382C36.1778 114.421 42.8607 117.874 47.1468 124.792C47.6679 125.635 48.7779 125.893 49.6206 125.372C50.4634 124.851 50.7217 123.741 50.2007 122.898C45.4071 115.164 38.0036 111.2 29.7711 108.921C22.0914 106.796 13.6822 106.153 6.17014 105.07Z" fill="white"/>
</svg>
